<svg width="31" height="31" viewBox="0 0 31 31" fill="none" xmlns="http://www.w3.org/2000/svg">
<g clip-path="url(#clip0_2411_27972)">
<path d="M15.5 29.0625C11.903 29.0625 8.45333 27.6336 5.90986 25.0901C3.3664 22.5467 1.9375 19.097 1.9375 15.5C1.9375 11.903 3.3664 8.45333 5.90986 5.90986C8.45333 3.3664 11.903 1.9375 15.5 1.9375C19.097 1.9375 22.5467 3.3664 25.0901 5.90986C27.6336 8.45333 29.0625 11.903 29.0625 15.5C29.0625 19.097 27.6336 22.5467 25.0901 25.0901C22.5467 27.6336 19.097 29.0625 15.5 29.0625ZM15.5 31C19.6109 31 23.5533 29.367 26.4602 26.4602C29.367 23.5533 31 19.6109 31 15.5C31 11.3891 29.367 7.44666 26.4602 4.53984C23.5533 1.63303 19.6109 0 15.5 0C11.3891 0 7.44666 1.63303 4.53984 4.53984C1.63303 7.44666 0 11.3891 0 15.5C0 19.6109 1.63303 23.5533 4.53984 26.4602C7.44666 29.367 11.3891 31 15.5 31Z" fill="black"/>
<path d="M8.30075 18.5361C8.52326 18.4076 8.78767 18.3728 9.03584 18.4393C9.28401 18.5058 9.4956 18.6681 9.62407 18.8906C10.2191 19.922 11.0754 20.7785 12.1066 21.3737C13.1379 21.9689 14.3078 22.282 15.4986 22.2813C16.6893 22.282 17.8592 21.9689 18.8905 21.3737C19.9218 20.7785 20.778 19.922 21.3731 18.8906C21.4362 18.7796 21.5207 18.6821 21.6217 18.6038C21.7226 18.5255 21.8381 18.468 21.9614 18.4345C22.0847 18.4011 22.2134 18.3923 22.3401 18.4088C22.4668 18.4252 22.589 18.4666 22.6996 18.5305C22.8102 18.5944 22.9072 18.6795 22.9848 18.781C23.0624 18.8825 23.1191 18.9983 23.1518 19.1218C23.1844 19.2453 23.1923 19.3741 23.175 19.5007C23.1577 19.6273 23.1156 19.7492 23.0509 19.8594C22.2859 21.1853 21.185 22.2863 19.8592 23.0516C18.5334 23.8169 17.0294 24.2194 15.4986 24.2188C13.9677 24.2194 12.4637 23.8169 11.1379 23.0516C9.81211 22.2863 8.71127 21.1853 7.94619 19.8594C7.81773 19.6369 7.78292 19.3725 7.84941 19.1243C7.91591 18.8761 8.07826 18.6645 8.30075 18.5361ZM13.5611 12.5938C13.5611 14.198 12.6931 15.5 11.6236 15.5C10.5541 15.5 9.68607 14.198 9.68607 12.5938C9.68607 10.9895 10.5541 9.6875 11.6236 9.6875C12.6931 9.6875 13.5611 10.9895 13.5611 12.5938ZM21.3111 12.5938C21.3111 14.198 20.4431 15.5 19.3736 15.5C18.3041 15.5 17.4361 14.198 17.4361 12.5938C17.4361 10.9895 18.3041 9.6875 19.3736 9.6875C20.4431 9.6875 21.3111 10.9895 21.3111 12.5938Z" fill="black"/>
</g>
<defs>
<clipPath id="clip0_2411_27972">
<rect width="31" height="31" fill="white"/>
</clipPath>
</defs>
</svg>
