<svg width="43" height="43" viewBox="0 0 43 43" fill="none" xmlns="http://www.w3.org/2000/svg">
<path fillRule="evenodd" clipRule="evenodd" d="M6.0074 25C3.76613 25 1.94531 23.1839 1.94531 20.9552C1.94531 18.7231 3.76613 16.9036 6.0074 16.9036C8.24867 16.9036 10.0695 18.7231 10.0695 20.9552C10.0695 23.1839 8.24867 25 6.0074 25ZM21.1945 25C18.9532 25 17.1324 23.1839 17.1324 20.9552C17.1324 18.7231 18.9532 16.9036 21.1945 16.9036C23.4357 16.9036 25.2566 18.7231 25.2566 20.9552C25.2566 23.1839 23.4357 25 21.1945 25ZM32.3211 20.9552C32.3211 23.1839 34.1419 25 36.3832 25C38.6245 25 40.4453 23.1839 40.4453 20.9552C40.4453 18.7231 38.6245 16.9036 36.3832 16.9036C34.1419 16.9036 32.3211 18.7231 32.3211 20.9552Z" fill="#3A57E8"/>
</svg>
