<svg width="46" height="45" viewBox="0 0 46 45" fill="none" xmlns="http://www.w3.org/2000/svg">
<path d="M36.7578 23.3241V19.6875H33.9453V23.9062C33.9454 24.2792 34.0936 24.6368 34.3573 24.9005L38.1641 28.7072V30.9375H7.22656V28.7072L11.0333 24.9005C11.297 24.6368 11.4452 24.2792 11.4453 23.9062V18.2812C11.4414 16.3052 11.959 14.3631 12.9459 12.6511C13.9328 10.9391 15.354 9.51783 17.0659 8.53088C18.7779 7.54394 20.72 7.02625 22.6961 7.0301C24.6721 7.03395 26.6122 7.5592 28.3203 8.55281V5.40984C26.9817 4.81714 25.5579 4.43937 24.1016 4.29047V1.40625H21.2891V4.28906C17.8221 4.64194 14.609 6.26782 12.2713 8.85232C9.93356 11.4368 8.63717 14.7963 8.63281 18.2812V23.3241L4.82609 27.1308C4.56235 27.3944 4.41414 27.7521 4.41406 28.125V32.3438C4.41406 32.7167 4.56222 33.0744 4.82594 33.3381C5.08967 33.6018 5.44735 33.75 5.82031 33.75H15.6641V35.1562C15.6641 37.0211 16.4049 38.8095 17.7235 40.1281C19.0421 41.4467 20.8305 42.1875 22.6953 42.1875C24.5601 42.1875 26.3485 41.4467 27.6672 40.1281C28.9858 38.8095 29.7266 37.0211 29.7266 35.1562V33.75H39.5703C39.9433 33.75 40.301 33.6018 40.5647 33.3381C40.8284 33.0744 40.9766 32.7167 40.9766 32.3438V28.125C40.9765 27.7521 40.8283 27.3944 40.5645 27.1308L36.7578 23.3241ZM26.9141 35.1562C26.9141 36.2751 26.4696 37.3482 25.6784 38.1394C24.8873 38.9305 23.8142 39.375 22.6953 39.375C21.5764 39.375 20.5034 38.9305 19.7122 38.1394C18.921 37.3482 18.4766 36.2751 18.4766 35.1562V33.75H26.9141V35.1562Z" fill="#3A57E8"/>
<path d="M36.7578 16.875C39.8644 16.875 42.3828 14.3566 42.3828 11.25C42.3828 8.1434 39.8644 5.625 36.7578 5.625C33.6512 5.625 31.1328 8.1434 31.1328 11.25C31.1328 14.3566 33.6512 16.875 36.7578 16.875Z" fill="#DD0000"/>
</svg>
