<svg width="48" height="48" viewBox="0 0 48 48" fill="none" xmlns="http://www.w3.org/2000/svg">
<path d="M24 48C20.75 48 17.6406 47.3672 14.6719 46.1016C11.7031 44.8359 9.14844 43.1328 7.00781 40.9922C4.86719 38.8516 3.16406 36.2969 1.89844 33.3281C0.632812 30.3594 0 27.25 0 24C0 20.75 0.632812 17.6406 1.89844 14.6719C3.16406 11.7031 4.86719 9.14844 7.00781 7.00781C9.14844 4.86719 11.7031 3.16406 14.6719 1.89844C17.6406 0.632812 20.75 0 24 0C27.25 0 30.3594 0.632812 33.3281 1.89844C36.2969 3.16406 38.8516 4.86719 40.9922 7.00781C43.1328 9.14844 44.8359 11.7031 46.1016 14.6719C47.3672 17.6406 48 20.75 48 24C48 27.25 47.3672 30.3594 46.1016 33.3281C44.8359 36.2969 43.1328 38.8516 40.9922 40.9922C38.8516 43.1328 36.2969 44.8359 33.3281 46.1016C30.3594 47.3672 27.25 48 24 48ZM24 3C21.1562 3 18.4375 3.55469 15.8438 4.66406C13.25 5.77344 11.0156 7.26562 9.14062 9.14062C7.26562 11.0156 5.77344 13.25 4.66406 15.8438C3.55469 18.4375 3 21.1641 3 24.0234C3 26.8828 3.55469 29.6016 4.66406 32.1797C5.77344 34.7578 7.26562 36.9844 9.14062 38.8594C11.0156 40.7344 13.25 42.2266 15.8438 43.3359C18.4375 44.4453 21.1562 45 24 45C26.8438 45 29.5625 44.4453 32.1562 43.3359C34.75 42.2266 36.9844 40.7344 38.8594 38.8594C40.7344 36.9844 42.2266 34.7578 43.3359 32.1797C44.4453 29.6016 45 26.8828 45 24.0234C45 21.1641 44.4453 18.4375 43.3359 15.8438C42.2266 13.25 40.7344 11.0156 38.8594 9.14062C36.9844 7.26562 34.75 5.77344 32.1562 4.66406C29.5625 3.55469 26.8438 3 24 3ZM24 36C20.6875 36 17.8594 34.8281 15.5156 32.4844C13.1719 30.1406 12 27.3125 12 24C12 20.6875 13.1719 17.8594 15.5156 15.5156C17.8594 13.1719 20.6875 12 24 12C27.3125 12 30.1406 13.1719 32.4844 15.5156C34.8281 17.8594 36 20.6875 36 24C36 27.3125 34.8281 30.1406 32.4844 32.4844C30.1406 34.8281 27.3125 36 24 36Z" fill="#DD0000"/>
</svg>
