<svg width="42" height="32" viewBox="0 0 42 32" fill="none" xmlns="http://www.w3.org/2000/svg">
<path fillRule="evenodd" clipRule="evenodd" d="M12.178 0.00275693L13.1187 0.00396424C13.2795 0.00419135 13.4421 0.00443054 13.6062 0.00468054L14.6059 0.00629988C16.7995 0.0100447 19.136 0.0151805 20.9168 0.0188819L21.6966 0.0204781C21.8192 0.0207238 21.9378 0.0209583 22.0522 0.0211805C26.5522 -0.294819 30.6142 3.04518 30.9762 7.52718C30.9796 7.57315 30.9825 7.83403 30.985 8.30857L35.1366 4.90858C36.3446 3.91858 37.9706 3.72458 39.3806 4.39058C40.7906 5.06058 41.6666 6.44458 41.6646 8.00458L41.6406 22.7026C41.6386 24.2626 40.7606 25.6466 39.3526 26.3106C38.8006 26.5726 38.2166 26.6986 37.6366 26.6986C36.7346 26.6986 35.8446 26.3886 35.1106 25.7866L30.9943 22.371C30.9943 22.4289 30.9942 22.487 30.9942 22.5452C31.0782 24.6572 30.3262 26.6912 28.8742 28.2712C27.3482 29.9332 25.2442 30.8992 22.9522 30.9932C22.9133 30.996 22.6943 30.9978 22.3348 30.999L21.5447 31.0004C21.2364 31.0006 20.8863 31.0006 20.5027 31.0005L18.8108 30.9989C18.6584 30.9987 18.5035 30.9984 18.3465 30.9982L17.3817 30.9967C15.083 30.9928 12.4936 30.9868 10.4861 30.9824L9.66389 30.9807C9.4034 30.9801 9.15732 30.9796 8.92821 30.9792C8.71621 30.9952 8.50421 31.0032 8.29221 31.0032C4.06421 31.0052 0.376214 27.7652 0.028214 23.5152L0.0279025 23.5109L0.026034 23.4712C0.025894 23.4669 0.0257512 23.4621 0.0256059 23.4569L0.0242325 23.3939C0.0240733 23.385 0.023912 23.3753 0.0237488 23.3649L0.0222355 23.2484C0.0220629 23.2328 0.021889 23.2161 0.021714 23.1984L0.020114 23.0094C0.019934 22.9849 0.0197535 22.9591 0.0195725 22.932L0.018484 22.7534C0.0183024 22.7208 0.0181207 22.6868 0.0179392 22.6513L0.0163159 22.2893C0.0161372 22.2442 0.0159592 22.1973 0.0157822 22.1487L0.0142188 21.6616C0.014049 21.6018 0.0138807 21.54 0.013714 21.4762L0.012264 20.8449C0.012109 20.7683 0.0119562 20.6894 0.0118059 20.6082L0.0101288 19.5194C0.0100007 19.4188 0.00987568 19.3156 0.00975402 19.2097L0.00820217 17.4164C0.00811846 17.2825 0.00803902 17.1457 0.00796402 17.0059L0.0079355 9.17007C0.00802124 8.93242 0.00811402 8.69081 0.00821402 8.44518C-0.087786 6.38318 0.660214 4.33518 2.12021 2.74118C3.64421 1.07718 5.74621 0.107181 8.04021 0.00918054C8.0711 0.00695832 8.21727 0.00527931 8.45838 0.0040612L8.8887 0.00256943C8.97143 0.00237499 9.05947 0.00220678 9.15248 0.00206352L11.7287 0.00228137C11.8758 0.00242437 12.0257 0.00258332 12.178 0.00275693ZM22.1602 3.01718C19.6351 3.01351 16.5476 3.0091 13.9127 3.00622L12.5266 3.00482C12.305 3.00461 12.0888 3.00443 11.8786 3.00426L8.40044 3.00437C8.26955 3.00496 8.18488 3.00585 8.15221 3.00718C6.67621 3.06918 5.31421 3.69518 4.33221 4.76718C3.41621 5.76918 2.94421 7.04918 3.00621 8.37718L3.00787 16.1031C3.00795 16.2737 3.00805 16.443 3.00814 16.611L3.00998 18.9991C3.01012 19.1477 3.01028 19.2938 3.01044 19.4372L3.01147 20.2634C3.01165 20.3951 3.01184 20.5236 3.01204 20.6488L3.01398 21.6787C3.01611 22.606 3.01881 23.2074 3.02221 23.3232C3.25021 26.0932 5.84621 28.2112 8.81821 27.9832C9.1325 27.9836 9.45543 27.9841 9.78507 27.9846L10.7921 27.9863C11.6449 27.9876 12.5274 27.9891 13.4093 27.9906L14.4653 27.9924C14.9912 27.9933 15.5126 27.9941 16.0228 27.9949L17.0263 27.9964C17.1905 27.9966 17.3529 27.9969 17.5133 27.9971L18.4504 27.9983C18.602 27.9985 18.7512 27.9987 18.8976 27.9989L22.4285 27.9988C22.6595 27.998 22.8046 27.9968 22.8482 27.9952C24.3182 27.9352 25.6822 27.3112 26.6642 26.2412C27.5822 25.2432 28.0542 23.9632 27.9962 22.6412L27.9945 22.6082L27.9941 12.9358C27.994 12.7787 27.9939 12.6236 27.9938 12.4708L27.9923 10.7591C27.9922 10.6279 27.992 10.4997 27.9918 10.3749L27.9901 9.34812C27.9895 9.04 27.9888 8.76801 27.988 8.53809L27.9863 8.13613C27.9851 7.90791 27.9837 7.76156 27.9822 7.71118C27.7562 4.92718 25.1482 2.78318 22.1602 3.01718ZM37.0366 7.23058L30.9935 12.1612C30.9937 12.4069 30.9939 12.6623 30.9941 12.9275L30.9954 17.9428L37.0126 23.4686C37.4546 23.8286 37.8986 23.6806 38.0706 23.5966C38.2426 23.5166 38.6406 23.2666 38.6406 22.6986L38.6646 8.00058C38.6666 7.43258 38.2666 7.18258 38.0946 7.10058C37.9246 7.02058 37.4746 6.87058 37.0366 7.23058Z" fill="black"/>
</svg>
