<svg width="28" height="26" viewBox="0 0 28 26" fill="none" xmlns="http://www.w3.org/2000/svg">
<path d="M5.61748 26C4.17042 26.0002 2.78132 25.4212 1.75 24.388L1.63626 24.2723C1.11809 23.7576 0.706366 23.1427 0.425353 22.4635C0.14434 21.7844 -0.00027973 21.055 1.61683e-05 20.3181C-0.00181504 19.5203 0.151922 18.7301 0.452318 17.9932C0.752714 17.2564 1.1938 16.5875 1.75 16.0255L15.3124 2.3728C16.6904 0.912475 18.5768 0.0615078 20.5653 0.00320523C22.5539 -0.0550973 24.4853 0.68393 25.9436 2.06109C26.6013 2.72885 27.1218 3.52317 27.4749 4.39777C27.8279 5.27236 28.0063 6.20973 27.9998 7.15523C27.992 8.2112 27.7793 9.2552 27.3739 10.2272C26.9685 11.1993 26.3783 12.0802 25.6373 12.8194L13.4487 25.1094C13.3729 25.2132 13.2759 25.2989 13.1643 25.3606C13.0527 25.4223 12.9293 25.4586 12.8025 25.4669C12.6758 25.4751 12.5488 25.4552 12.4304 25.4085C12.3119 25.3618 12.2049 25.2895 12.1168 25.1964C12.0286 25.1034 11.9614 24.992 11.9198 24.8699C11.8781 24.7477 11.8632 24.6178 11.8758 24.4892C11.8885 24.3606 11.9285 24.2363 11.9931 24.1251C12.0577 24.0138 12.1454 23.9181 12.2499 23.8448L24.4036 11.5547C24.9808 10.9813 25.441 10.2974 25.7579 9.5424C26.0747 8.78742 26.2419 7.97617 26.2498 7.15523C26.2562 6.44477 26.1232 5.74015 25.8588 5.0826C25.5944 4.42505 25.2038 3.82778 24.7099 3.32572C23.5792 2.27738 22.0894 1.72269 20.561 1.78098C19.0326 1.83927 17.5878 2.5059 16.5374 3.63742L3.01875 17.2901C2.62037 17.6838 2.30301 18.1543 2.08518 18.6742C1.86735 19.1941 1.75341 19.7529 1.75 20.3181C1.74813 20.8143 1.84308 21.306 2.02933 21.7647C2.21557 22.2233 2.48942 22.6397 2.835 22.9898L2.94875 23.1056C3.73165 23.8394 4.76633 24.2309 5.83006 24.196C6.89378 24.161 7.90147 23.7023 8.63621 22.9186L20.3174 11.1629C20.5383 10.9355 20.7124 10.6656 20.8296 10.369C20.9468 10.0723 21.0047 9.75484 20.9999 9.43513C21.0018 9.15744 20.9494 8.88215 20.8458 8.62528C20.7421 8.36841 20.5893 8.1351 20.3961 7.93895C19.9543 7.52653 19.3708 7.30751 18.7716 7.32917C18.1724 7.35083 17.6057 7.61143 17.1937 8.05472L9.1437 16.1769C8.97894 16.3434 8.75593 16.4365 8.52374 16.4356C8.29155 16.4348 8.06919 16.3401 7.90559 16.1724C7.74198 16.0047 7.65053 15.7777 7.65135 15.5414C7.65217 15.3051 7.7452 15.0787 7.90996 14.9122L15.9949 6.76338C16.736 5.99064 17.7459 5.54541 18.8066 5.52375C19.8673 5.50209 20.8939 5.90574 21.6649 6.6476C22.0194 7.01496 22.2981 7.45088 22.4844 7.92964C22.6708 8.4084 22.761 8.9203 22.7499 9.43513C22.7489 9.98954 22.6393 10.5382 22.4275 11.0489C22.2156 11.5597 21.9058 12.0223 21.5161 12.4097L9.86995 24.201C8.74111 25.3482 7.21263 25.9948 5.61748 26Z" fill="black"/>
</svg>
