<svg width="44" height="44" viewBox="0 0 44 44" fill="none" xmlns="http://www.w3.org/2000/svg">
<path fillRule="evenodd" clipRule="evenodd" d="M36.0579 24.8116H31.516C30.8666 24.8116 30.4345 24.3787 30.4345 23.73C30.4345 23.0814 30.8674 22.6485 31.516 22.6485H36.0579C37.1388 22.6485 38.2203 22.4327 39.3019 22.2156C39.9505 21.9998 40.3834 21.7834 40.8156 21.5669C41.2485 21.3512 41.465 20.7018 41.465 20.2697C41.465 19.8367 41.2485 19.4038 41.0321 18.9717C39.9505 17.6744 38.0039 16.8093 35.4086 15.9442C35.1921 15.9442 35.1921 15.7277 34.9757 15.7277C34.327 15.2948 33.8948 14.6462 33.6784 13.9975C33.6784 13.1317 34.1113 12.4831 34.7599 12.0509C36.2737 9.88778 37.1388 7.94184 36.923 6.21094C36.7066 5.1301 36.2737 4.26501 35.4086 3.61565C33.8948 2.5341 31.7324 2.5341 30.4337 3.61565C29.5694 4.26501 29.1364 5.1301 28.92 6.21094C28.7043 7.94113 29.5694 9.88778 31.0831 12.0509C31.516 12.4838 31.2995 13.1324 30.8666 13.5646C30.4337 13.9975 29.7851 13.7811 29.3529 13.3489C27.1898 10.7529 26.3247 8.15759 26.7576 5.77875C26.9741 4.26501 27.8392 2.75055 29.1364 1.88546C31.2995 0.155264 34.5442 0.155264 36.7066 1.88546C38.0039 2.96701 38.869 4.26501 39.0854 5.77875C39.3019 8.15759 38.4368 10.7536 36.4901 13.3489C36.2737 13.5646 36.2737 13.7811 36.0572 13.7811C36.0572 13.7811 36.2737 13.7811 36.2737 13.9975C39.0854 14.8626 41.2485 16.1599 42.5458 17.6737C43.1952 18.323 43.6274 19.4046 43.6274 20.4861C43.6274 21.0736 43.4906 21.6531 43.2279 22.1785C42.9651 22.704 42.5836 23.1611 42.1136 23.5136C41.465 23.9465 40.8156 24.3794 39.9505 24.5951C38.6532 24.5951 37.3552 24.8116 36.0579 24.8116ZM12.4824 24.8116H7.94051C6.42677 24.8116 5.12948 24.5951 4.04793 24.1629C3.18213 23.9465 2.53348 23.5136 1.88484 23.0814C1.01974 22.4327 0.371094 21.1347 0.371094 20.0532C0.371094 18.9717 0.803997 18.1066 1.45264 17.2415C2.96638 15.7277 5.12877 14.6462 7.94051 13.7811C7.94051 13.7811 8.15696 13.7811 8.15696 13.5646C8.15696 13.5646 7.94051 13.3489 7.94051 13.1317C5.77813 10.5378 4.69729 7.7261 5.13019 5.56301C5.34593 4.04926 6.21103 2.53481 7.50903 1.66972C9.67213 -0.060478 12.9161 -0.060478 15.0792 1.66972C16.3764 2.75126 17.2415 4.04926 17.458 5.56301C17.6744 7.94184 16.8094 10.5378 14.8627 13.1331C14.4298 13.566 13.7812 13.566 13.349 13.3496C12.9161 12.9167 12.6996 12.268 13.1325 11.8351C14.8627 9.67275 15.5114 7.50965 15.2949 5.99591C15.2949 4.91436 14.6463 4.04926 13.7812 3.39991C12.2674 2.31907 10.3208 2.31907 8.80632 3.39991C7.94122 4.04926 7.29258 4.91436 7.29258 5.77946C7.07613 7.50965 7.94122 9.45559 9.45567 11.6187C9.88858 12.268 10.5372 12.9167 10.3208 13.5653C10.3208 14.4311 9.67213 14.8633 9.02277 15.2955C9.02277 15.2955 8.80703 15.512 8.58987 15.512C6.21103 16.5935 4.48084 17.4586 3.18355 18.7566C2.96709 19.1895 2.75064 19.6217 2.75064 20.0539C2.75064 20.7026 2.96709 21.1355 3.39929 21.3519C3.83219 21.5676 4.26509 21.7848 4.91374 22.0006C5.77884 22.4335 6.86038 22.6492 7.94122 22.6492H12.4832C13.1325 22.6492 13.5647 23.0821 13.5647 23.7307C13.5647 24.3794 13.1318 24.8123 12.4832 24.8123L12.4824 24.8116Z" fill="black"/>
<path fillRule="evenodd" clipRule="evenodd" d="M26.5421 43.6281H17.6746C15.728 43.6281 13.9978 43.4116 12.4833 42.763C11.4025 42.3301 10.5374 41.8979 9.88805 41.2492C8.59076 40.6006 7.94141 39.0861 7.94141 37.5724C7.94141 36.2744 8.37431 35.1928 9.23941 34.112C10.9696 32.1654 13.7813 30.6509 17.6746 29.3536L18.3233 28.705L17.6746 28.0556C14.8629 24.3795 13.5656 21.1348 13.9978 18.1067C14.4307 16.16 15.2951 14.4305 17.0253 13.1318C19.837 11.1859 24.1632 11.1859 26.7585 13.1318C28.4887 14.4305 29.5702 16.16 29.786 18.1067C30.2189 21.1348 28.9209 24.5952 26.3256 28.0563C25.677 28.705 25.677 28.9207 25.677 28.9207C25.677 28.9207 26.1099 29.1372 26.3256 29.3536C30.2189 30.6509 33.0306 32.1654 34.7608 34.112C35.6259 34.9771 36.0588 36.2744 36.0588 37.5724C36.0588 39.0861 35.4095 40.6006 34.3279 41.4657C33.6793 42.1143 32.8142 42.5465 31.7326 42.9794C30.0024 43.4123 28.2722 43.6281 26.5421 43.6281ZM22.0001 13.5647C20.7021 13.5647 19.4048 13.9976 18.3233 14.6463C17.0253 15.5121 16.3766 16.8094 16.1602 18.3231C15.9444 20.7019 17.026 23.5137 19.1884 26.5419C19.837 27.1905 20.4864 27.8399 20.2699 28.9207C20.2699 29.7865 19.4041 30.4352 18.7562 31.0838C18.7562 31.0838 18.5397 31.3003 18.3233 31.3003C14.6471 32.3818 12.2676 33.8956 10.5374 35.6258C10.321 36.0587 10.1045 36.9238 10.1045 37.5724C10.1045 38.4375 10.5374 39.3026 11.1861 39.7348C11.619 40.1677 12.4833 40.6006 13.3491 40.8163C14.6464 41.2492 16.1602 41.4657 17.6746 41.4657H26.5421C28.0558 41.4657 29.5702 41.2492 30.8675 40.8163C31.7333 40.6006 32.382 40.1677 33.0306 39.7348C33.6793 39.3026 34.1122 38.4375 34.1122 37.5724C34.1122 36.9238 33.8957 36.0587 33.2464 35.6258C31.7326 33.8956 29.1373 32.5976 25.4612 31.3003C25.2441 31.3003 25.2441 31.0838 25.0283 31.0838C24.379 30.4352 23.5139 29.7858 23.5139 28.9207C23.5139 28.0556 24.1632 27.1905 24.8119 26.5419C26.975 23.7301 28.0558 20.7019 27.8401 18.3231C27.6236 16.8094 26.9742 15.7278 25.677 14.647C24.5954 13.9976 23.2981 13.5647 22.0001 13.5647Z" fill="black"/>
</svg>
