<svg width="29" height="30" viewBox="0 0 29 30" fill="none" xmlns="http://www.w3.org/2000/svg">
<path d="M29 13.1136C29 5.38147 23.139 0 14.7137 0C5.98347 0 0 6.0408 0 14.8596C0 23.9625 5.8245 29.7349 15.016 29.7349C17.2624 29.7349 19.4176 29.4144 21.0203 28.8619V26.6155C19.8997 27.1341 17.4917 27.4703 15.0525 27.4703C7.42721 27.4703 2.50962 22.5709 2.50962 14.9665C2.50962 7.55491 7.51581 2.24641 14.4818 2.24641C21.6093 2.24641 26.4904 6.6454 26.4904 13.0771C26.4904 17.4605 25.0466 20.2932 22.8002 20.2932C21.5181 20.2932 20.7884 19.5635 20.7884 18.3126V7.85981H18.0989V10.0332H17.8123C17.1191 8.48266 15.5164 7.52103 13.6426 7.52103C9.99416 7.52103 7.44545 10.5492 7.44545 14.8779C7.44545 19.4046 9.93943 22.451 13.6452 22.451C15.7301 22.451 17.3328 21.4347 18.0989 19.6183H18.3856C18.5967 21.3643 20.2177 22.61 22.3025 22.61C26.3992 22.61 29 18.9224 29 13.1162V13.1136ZM10.2965 14.9482C10.2965 11.8288 11.7037 9.97852 14.0909 9.97852C16.5145 9.97852 18.0625 11.9018 18.0625 14.9482C18.0625 17.9947 16.4962 19.9362 14.0544 19.9362C11.722 19.9362 10.2965 18.0468 10.2965 14.9482Z" fill="black"/>
</svg>
