<svg width="32" height="52" viewBox="0 0 32 52" fill="none" xmlns="http://www.w3.org/2000/svg">
<path d="M1.6 20.7998C2.02435 20.7998 2.43131 20.9684 2.73137 21.2684C3.03143 21.5685 3.2 21.9755 3.2 22.3998V25.5998C3.2 28.9946 4.54857 32.2503 6.94903 34.6508C9.3495 37.0512 12.6052 38.3998 16 38.3998C19.3948 38.3998 22.6505 37.0512 25.051 34.6508C27.4514 32.2503 28.8 28.9946 28.8 25.5998V22.3998C28.8 21.9755 28.9686 21.5685 29.2686 21.2684C29.5687 20.9684 29.9757 20.7998 30.4 20.7998C30.8243 20.7998 31.2313 20.9684 31.5314 21.2684C31.8314 21.5685 32 21.9755 32 22.3998V25.5998C32 29.5663 30.5268 33.3914 27.866 36.3331C25.2052 39.2747 21.5466 41.1232 17.6 41.5198V47.9998H27.2C27.6243 47.9998 28.0313 48.1684 28.3314 48.4684C28.6314 48.7685 28.8 49.1755 28.8 49.5998C28.8 50.0242 28.6314 50.4311 28.3314 50.7312C28.0313 51.0312 27.6243 51.1998 27.2 51.1998H4.8C4.37565 51.1998 3.96869 51.0312 3.66863 50.7312C3.36857 50.4311 3.2 50.0242 3.2 49.5998C3.2 49.1755 3.36857 48.7685 3.66863 48.4684C3.96869 48.1684 4.37565 47.9998 4.8 47.9998H14.4V41.5198C10.4534 41.1232 6.7948 39.2747 4.13402 36.3331C1.47323 33.3914 -4.98293e-05 29.5663 1.26402e-09 25.5998V22.3998C1.26402e-09 21.9755 0.168571 21.5685 0.468629 21.2684C0.768688 20.9684 1.17565 20.7998 1.6 20.7998Z" fill="black"/>
<path d="M22.3984 25.6C22.3984 27.2974 21.7242 28.9252 20.5239 30.1255C19.3237 31.3257 17.6958 32 15.9984 32C14.3011 32 12.6732 31.3257 11.473 30.1255C10.2727 28.9252 9.59844 27.2974 9.59844 25.6V9.6C9.59844 7.90261 10.2727 6.27475 11.473 5.07452C12.6732 3.87428 14.3011 3.2 15.9984 3.2C17.6958 3.2 19.3237 3.87428 20.5239 5.07452C21.7242 6.27475 22.3984 7.90261 22.3984 9.6V25.6ZM15.9984 0C13.4524 0 11.0106 1.01143 9.21021 2.81177C7.40986 4.61212 6.39844 7.05392 6.39844 9.6V25.6C6.39844 28.1461 7.40986 30.5879 9.21021 32.3882C11.0106 34.1886 13.4524 35.2 15.9984 35.2C18.5445 35.2 20.9863 34.1886 22.7867 32.3882C24.587 30.5879 25.5984 28.1461 25.5984 25.6V9.6C25.5984 7.05392 24.587 4.61212 22.7867 2.81177C20.9863 1.01143 18.5445 0 15.9984 0V0Z" fill="black"/>
</svg>
