<svg width="54" height="54" viewBox="0 0 54 54" fill="none" xmlns="http://www.w3.org/2000/svg">
<g clip-path="url(#clip0_2411_28037)">
<path d="M45 40.5C47.475 40.5 49.4775 38.475 49.4775 36L49.5 13.5C49.5 12.3065 49.0259 11.1619 48.182 10.318C47.3381 9.47411 46.1935 9 45 9H9C6.5025 9 4.5 11.0025 4.5 13.5V36C4.5 37.1935 4.97411 38.3381 5.81802 39.182C6.66193 40.0259 7.80653 40.5 9 40.5H0V45H54V40.5H45ZM9 36V13.5H45V36.0225L9 36ZM29.25 20.5425C20.4975 21.7575 17.01 27.7425 15.75 33.75C18.8775 29.5425 22.995 27.63 29.25 27.63V32.5575L38.25 24.1425L29.25 15.75V20.5425Z" fill="black"/>
</g>
<defs>
<clipPath id="clip0_2411_28037">
<rect width="54" height="54" fill="white"/>
</clipPath>
</defs>
</svg>
