<svg width="31" height="31" viewBox="0 0 31 31" fill="none" xmlns="http://www.w3.org/2000/svg">
<path opacity="0.4" d="M6.86581 30.5C3.18931 30.5 0.195313 27.4546 0.195313 23.7132L0.195313 16.2715C0.195313 12.5377 3.18031 9.5 6.85081 9.5H23.5248C27.2028 9.5 30.1953 12.5454 30.1953 16.2883V23.7269C30.1953 27.4623 27.2103 30.5 23.5398 30.5H22.1298H6.86581Z" fill="#3A57E8"/>
<path d="M14.3764 0.831669L10.0129 5.10035C9.56291 5.54154 9.56291 6.25152 10.0159 6.69125C10.4689 7.12951 11.1994 7.12805 11.6494 6.68833L14.0389 4.34946V6.59191V19.1774C14.0389 19.7982 14.5564 20.3022 15.1939 20.3022C15.8329 20.3022 16.3489 19.7982 16.3489 19.1774V4.34946L18.7384 6.68833C19.1884 7.12805 19.9189 7.12951 20.3719 6.69125C20.5984 6.47066 20.7124 6.18286 20.7124 5.89361C20.7124 5.60728 20.5984 5.31948 20.3749 5.10035L16.0129 0.831669C15.7954 0.619843 15.5014 0.50005 15.1939 0.50005C14.8879 0.50005 14.5939 0.619843 14.3764 0.831669Z" fill="#3A57E8"/>
</svg>
